<svg width="33" height="32" viewBox="0 0 33 32" fill="none" xmlns="http://www.w3.org/2000/svg">
<g clip-path="url(#clip0_13202_12356)">
<path d="M32.2631 16.0002C32.2631 24.7253 25.1902 31.7982 16.465 31.7982C16.1374 31.7982 15.8125 31.7886 15.4902 31.7686C14.1386 31.6866 12.8323 31.434 11.5935 31.0321C11.1222 30.88 10.6603 30.7053 10.2098 30.5112C4.59577 28.0886 0.666992 22.5032 0.666992 16.0002C0.666992 7.27506 7.7399 0.202148 16.465 0.202148C25.1902 0.202148 32.2631 7.27506 32.2631 16.0002Z" fill="#33ADC1"/>
<path d="M15.4908 31.7683C13.6245 31.6547 11.8462 31.217 10.2104 30.5109C16.3282 22.2631 5.7373 14.4072 5.7373 14.4072L7.28081 14.0261L11.077 13.0894C11.077 13.0891 22.5051 20.0603 15.4908 31.7683Z" fill="#EAE0D3"/>
<path d="M11.5941 31.0321C11.1228 30.88 10.6609 30.7052 10.2104 30.5112C16.3282 22.2634 5.7373 14.4075 5.7373 14.4075L7.2808 14.0264C7.65493 14.3062 8.17851 14.6705 8.71294 15.1702C11.4986 17.7722 15.5397 23.3093 11.5941 31.0321Z" fill="#D6C8B0"/>
<path d="M14.8885 8.99429C14.8885 12.4053 12.1236 15.1702 8.71233 15.1702C5.30135 15.1702 2.5364 12.4053 2.5364 8.99429C2.5364 8.48493 2.59763 7.99028 2.71431 7.51684C2.83025 7.04364 3.00117 6.59166 3.21908 6.1686L0.666992 3.61651L4.84936 4.17552L2.70394 1.51568L7.60852 2.91623L7.07386 0.202148C7.07386 0.202148 11.3406 2.56212 13.3679 4.93582C13.5215 5.1118 13.6646 5.29693 13.798 5.48978C14.4855 6.48535 14.8885 7.69233 14.8885 8.99429Z" fill="#EAE0D3"/>
<path d="M12.0319 7.73335C12.0319 8.56862 11.3548 9.24599 10.5195 9.24599C9.68397 9.24599 9.00684 8.56862 9.00684 7.73335C9.00684 6.89784 9.68397 6.2207 10.5195 6.2207C11.3548 6.2207 12.0319 6.89784 12.0319 7.73335Z" fill="#2F373B"/>
<path d="M26.2093 8.73139C25.5884 9.05586 24.9339 8.98233 24.4084 8.80805C23.7939 8.60508 23.3566 8.26591 23.3566 8.26591C23.3566 8.26591 21.1449 6.09469 22.8466 5.1495C23.3605 4.86457 23.7766 4.86577 24.1066 5.00751H24.1073C24.8715 5.33511 25.1783 6.40999 25.1783 6.40999C25.1783 6.40999 25.7942 4.81298 27.1567 5.29654C28.5184 5.77938 27.5552 8.02798 26.2093 8.73139Z" fill="#FF648D"/>
<path d="M24.4084 8.80805C23.7939 8.60508 23.3566 8.26591 23.3566 8.26591C23.3566 8.26591 21.1449 6.09469 22.8466 5.1495C23.3605 4.86457 23.7766 4.86577 24.1066 5.00751C23.3535 4.96509 23.3296 7.7404 24.4084 8.80805Z" fill="#EA2F69"/>
<path d="M11.6007 7.2508C11.6007 7.51186 11.3891 7.72351 11.128 7.72351C10.8669 7.72351 10.6553 7.51186 10.6553 7.2508C10.6553 6.98997 10.8669 6.77832 11.128 6.77832C11.3891 6.77832 11.6007 6.98997 11.6007 7.2508Z" fill="white"/>
<path d="M23.91 9.46289C23.91 11.7669 17.6388 18.7625 21.7354 21.6614C22.7594 22.3863 23.8897 22.6225 25.0095 22.5695C26.1289 22.6228 27.2593 22.3863 28.2835 21.6614C32.3798 18.7625 26.1087 11.7669 26.1087 9.46289" fill="#FF648D"/>
<path d="M24.84 22.5746C23.7754 22.5977 22.7076 22.3497 21.7354 21.6614C17.6388 18.7625 23.9102 11.7667 23.9102 9.46289H24.5823C24.5823 11.7667 22.1454 18.7625 23.7374 21.6614C24.0838 22.292 24.4615 22.5534 24.84 22.5746Z" fill="#EA2F69"/>
<path d="M24.8398 22.5749C24.896 22.5744 24.9522 22.5722 25.0083 22.5698C24.9522 22.5768 24.896 22.5787 24.8398 22.5749Z" fill="#EA2F69"/>
<path d="M25.177 22.5749C25.1209 22.5787 25.065 22.5768 25.0088 22.5698C25.065 22.5722 25.1209 22.5744 25.177 22.5749Z" fill="#EA2F69"/>
<path d="M29.1311 9.05737L13.5015 11.641C13.5015 11.641 12.956 10.8137 12.7574 9.71691C12.5807 8.73893 12.68 7.54641 13.6905 6.53613L29.1311 9.05737Z" fill="#FFD62C"/>
<path d="M29.1315 9.05762L13.502 11.6413C13.502 11.6413 12.9564 10.814 12.7578 9.71715L29.1315 9.05762Z" fill="#FFB92E"/>
<path d="M8.71233 15.1702C5.30135 15.1702 2.5364 12.4052 2.5364 8.99424C2.5364 8.48488 2.59763 7.99023 2.71431 7.51679C2.83026 7.04359 3.00117 6.5916 3.21908 6.16854L0.666992 3.61645L4.84936 4.17547L2.70394 1.51562L7.70399 4.33023C7.70399 4.33023 4.61578 5.46513 4.61578 9.0574C4.61578 12.6497 8.71233 15.1702 8.71233 15.1702Z" fill="#D6C8B0"/>
</g>
<defs>
<clipPath id="clip0_13202_12356">
<rect width="31.5961" height="31.5961" fill="white" transform="translate(0.666992 0.202148)"/>
</clipPath>
</defs>
</svg>
