<svg aria-hidden="true" style="position: absolute; width: 0; height: 0; overflow: hidden;" version="1.1" xmlns="http://www.w3.org/2000/svg" xmlns:xlink="http://www.w3.org/1999/xlink">
<defs>
<symbol id="icon-logo" viewBox="0 0 103 32">
<path fill="#33adc1" style="fill: var(--color1, #33adc1)" d="M32.262 16c0 8.725-7.073 15.798-15.798 15.798-0.328 0-0.653-0.010-0.975-0.030-1.352-0.082-2.658-0.335-3.897-0.736-0.471-0.152-0.933-0.327-1.384-0.521-5.614-2.423-9.543-8.008-9.543-14.511 0-8.725 7.073-15.798 15.798-15.798s15.798 7.073 15.798 15.798z"></path>
<path fill="#eae0d3" style="fill: var(--color2, #eae0d3)" d="M15.49 31.768c-1.866-0.114-3.645-0.551-5.28-1.257 6.118-8.248-4.473-16.104-4.473-16.104l5.34-1.318c0-0 11.428 6.971 4.414 18.679z"></path>
<path fill="#d6c8b0" style="fill: var(--color3, #d6c8b0)" d="M11.593 31.032c-0.471-0.152-0.933-0.327-1.384-0.521 6.118-8.248-4.473-16.104-4.473-16.104l1.543-0.381c0.374 0.28 0.898 0.644 1.432 1.144 2.786 2.602 6.827 8.139 2.881 15.862z"></path>
<path fill="#eae0d3" style="fill: var(--color2, #eae0d3)" d="M14.887 8.994c0 3.411-2.765 6.176-6.176 6.176s-6.176-2.765-6.176-6.176c0-0.509 0.061-1.004 0.178-1.477s0.287-0.925 0.505-1.348l-2.552-2.552 4.182 0.559-2.145-2.66 4.905 1.401-0.535-2.714c0 0 4.267 2.36 6.294 4.734 0.154 0.176 0.297 0.361 0.43 0.554 0.688 0.996 1.091 2.203 1.091 3.504z"></path>
<path fill="#2f373b" style="fill: var(--color4, #2f373b)" d="M12.031 7.733c0 0.835-0.677 1.513-1.512 1.513s-1.513-0.677-1.513-1.513c0-0.835 0.677-1.513 1.513-1.513s1.512 0.677 1.512 1.513z"></path>
<path fill="#ff648d" style="fill: var(--color5, #ff648d)" d="M26.209 8.731c-0.621 0.324-1.275 0.251-1.801 0.077-0.614-0.203-1.052-0.542-1.052-0.542s-2.212-2.171-0.51-3.116c0.514-0.285 0.93-0.284 1.26-0.142h0.001c0.764 0.328 1.071 1.402 1.071 1.402s0.616-1.597 1.978-1.113c1.362 0.483 0.398 2.731-0.947 3.435z"></path>
<path fill="#ea2f69" style="fill: var(--color6, #ea2f69)" d="M24.408 8.808c-0.614-0.203-1.052-0.542-1.052-0.542s-2.212-2.171-0.51-3.116c0.514-0.285 0.93-0.284 1.26-0.142-0.753-0.042-0.777 2.733 0.302 3.801z"></path>
<path fill="#fff" style="fill: var(--color7, #fff)" d="M11.602 7.251c0 0.261-0.212 0.473-0.473 0.473s-0.473-0.212-0.473-0.473c0-0.261 0.212-0.472 0.473-0.472s0.473 0.212 0.473 0.472z"></path>
<path fill="#ff648d" style="fill: var(--color5, #ff648d)" d="M23.909 9.463c0 2.304-6.271 9.3-2.175 12.198 1.024 0.725 2.154 0.961 3.274 0.908 1.119 0.053 2.25-0.183 3.274-0.908 4.096-2.899-2.175-9.895-2.175-12.198z"></path>
<path fill="#ea2f69" style="fill: var(--color6, #ea2f69)" d="M24.839 22.575c-1.064 0.023-2.132-0.225-3.105-0.913-4.097-2.899 2.175-9.895 2.175-12.198h0.672c0 2.304-2.437 9.3-0.845 12.198 0.346 0.631 0.724 0.892 1.103 0.913z"></path>
<path fill="#ea2f69" style="fill: var(--color6, #ea2f69)" d="M24.838 22.575c0.056-0 0.112-0.003 0.169-0.005-0.056 0.007-0.112 0.009-0.169 0.005z"></path>
<path fill="#ea2f69" style="fill: var(--color6, #ea2f69)" d="M25.178 22.575c-0.056 0.004-0.112 0.002-0.168-0.005 0.056 0.002 0.112 0.005 0.168 0.005z"></path>
<path fill="#ffd62c" style="fill: var(--color8, #ffd62c)" d="M29.132 9.057l-15.63 2.584c0 0-0.546-0.827-0.744-1.924-0.177-0.978-0.077-2.171 0.933-3.181l15.441 2.521z"></path>
<path fill="#ffb92e" style="fill: var(--color9, #ffb92e)" d="M29.131 9.058l-15.63 2.584c0 0-0.546-0.827-0.744-1.924l16.374-0.66z"></path>
<path fill="#d6c8b0" style="fill: var(--color3, #d6c8b0)" d="M8.711 15.17c-3.411 0-6.176-2.765-6.176-6.176 0-0.509 0.061-1.004 0.178-1.477s0.287-0.925 0.505-1.348l-2.552-2.552 4.182 0.559-2.145-2.66 5 2.815c0 0-3.088 1.135-3.088 4.727s4.097 6.113 4.097 6.113z"></path>
<path fill="#000" style="fill: var(--color10, #000)" d="M96.901 22.877c-0.853 0-1.618-0.21-2.295-0.631-0.677-0.432-1.215-1.010-1.612-1.734-0.385-0.736-0.578-1.565-0.578-2.488s0.21-1.752 0.631-2.488c0.432-0.736 1.010-1.314 1.734-1.734 0.736-0.432 1.559-0.648 2.47-0.648s1.728 0.216 2.453 0.648c0.724 0.42 1.296 0.999 1.717 1.734 0.432 0.736 0.648 1.565 0.648 2.488h-0.683c0 0.923-0.199 1.752-0.596 2.488-0.385 0.724-0.917 1.302-1.594 1.734-0.677 0.42-1.442 0.631-2.295 0.631zM97.251 21.3c0.596 0 1.127-0.14 1.594-0.421 0.467-0.292 0.835-0.683 1.104-1.174 0.269-0.502 0.403-1.063 0.403-1.682 0-0.631-0.134-1.191-0.403-1.682-0.269-0.502-0.636-0.893-1.104-1.174-0.467-0.292-0.999-0.438-1.594-0.438-0.584 0-1.115 0.146-1.594 0.438-0.467 0.28-0.841 0.672-1.121 1.174-0.269 0.491-0.403 1.051-0.403 1.682 0 0.619 0.134 1.18 0.403 1.682 0.28 0.491 0.654 0.882 1.121 1.174 0.479 0.28 1.010 0.421 1.594 0.421zM101.175 22.824c-0.257 0-0.473-0.082-0.648-0.245-0.163-0.175-0.245-0.391-0.245-0.648v-2.68l0.333-1.857 1.454 0.631v3.907c0 0.257-0.088 0.473-0.263 0.648-0.164 0.163-0.374 0.245-0.631 0.245z"></path>
<path fill="#000" style="fill: var(--color10, #000)" d="M91.136 22.596c-0.152 0.14-0.368 0.21-0.648 0.21-0.269-0.012-0.479-0.093-0.631-0.245l-4.257-4.572 4.012-4.485c0.152-0.164 0.362-0.257 0.631-0.28 0.28-0.023 0.496 0.035 0.648 0.175 0.175 0.164 0.275 0.35 0.298 0.561 0.023 0.199-0.041 0.38-0.193 0.543l-3.171 3.399 3.364 3.609c0.152 0.152 0.228 0.333 0.228 0.543 0 0.199-0.093 0.38-0.28 0.543zM84.198 22.824c-0.257 0-0.461-0.082-0.613-0.245-0.152-0.175-0.228-0.391-0.228-0.648v-7.813c0-0.269 0.076-0.485 0.228-0.648s0.356-0.245 0.613-0.245c0.269 0 0.485 0.082 0.648 0.245 0.175 0.164 0.263 0.38 0.263 0.648v2.926h2.242v1.647h-2.242v3.241c0 0.257-0.088 0.473-0.263 0.648-0.163 0.163-0.38 0.245-0.648 0.245z"></path>
<path fill="#000" style="fill: var(--color10, #000)" d="M76.803 22.877c-0.969 0-1.834-0.204-2.593-0.613-0.748-0.421-1.337-0.993-1.769-1.717-0.42-0.736-0.631-1.577-0.631-2.523 0-0.958 0.199-1.799 0.596-2.523 0.409-0.736 0.969-1.308 1.682-1.717 0.712-0.421 1.53-0.631 2.453-0.631 0.911 0 1.693 0.204 2.347 0.613 0.654 0.397 1.15 0.952 1.489 1.664 0.35 0.701 0.526 1.513 0.526 2.435 0 0.222-0.076 0.409-0.228 0.561-0.152 0.14-0.345 0.21-0.578 0.21h-7.060v-1.401h7.007l-0.718 0.491c-0.012-0.584-0.128-1.104-0.35-1.559-0.222-0.467-0.537-0.835-0.946-1.104s-0.905-0.403-1.489-0.403c-0.666 0-1.238 0.146-1.717 0.438-0.467 0.292-0.823 0.695-1.069 1.209-0.245 0.502-0.368 1.074-0.368 1.717s0.146 1.215 0.438 1.717 0.695 0.899 1.209 1.191c0.514 0.292 1.104 0.438 1.769 0.438 0.362 0 0.73-0.064 1.104-0.193 0.385-0.14 0.695-0.298 0.928-0.473 0.175-0.128 0.362-0.193 0.561-0.193 0.21-0.012 0.391 0.047 0.543 0.175 0.198 0.175 0.304 0.368 0.315 0.578s-0.082 0.391-0.28 0.543c-0.397 0.315-0.893 0.572-1.489 0.771-0.584 0.199-1.144 0.298-1.682 0.298z"></path>
<path fill="#000" style="fill: var(--color10, #000)" d="M65.436 13.241c0.175 0 0.333 0.047 0.473 0.14s0.251 0.239 0.333 0.438l3.609 7.831c0.105 0.233 0.117 0.444 0.035 0.631-0.082 0.175-0.222 0.309-0.421 0.403-0.257 0.117-0.479 0.146-0.666 0.088s-0.344-0.204-0.473-0.438l-3.293-7.48h0.894l-3.399 7.48c-0.105 0.222-0.263 0.368-0.473 0.438-0.199 0.058-0.42 0.029-0.666-0.088-0.222-0.105-0.38-0.245-0.473-0.421-0.082-0.175-0.064-0.38 0.053-0.613l3.626-7.831c0.175-0.385 0.456-0.578 0.841-0.578z"></path>
<path fill="#000" style="fill: var(--color10, #000)" d="M55.29 22.877c-0.969 0-1.834-0.204-2.593-0.613-0.747-0.421-1.337-0.993-1.769-1.717-0.42-0.736-0.631-1.577-0.631-2.523 0-0.958 0.199-1.799 0.596-2.523 0.409-0.736 0.969-1.308 1.682-1.717 0.712-0.421 1.53-0.631 2.453-0.631 0.911 0 1.694 0.204 2.347 0.613 0.654 0.397 1.15 0.952 1.489 1.664 0.35 0.701 0.526 1.513 0.526 2.435 0 0.222-0.076 0.409-0.228 0.561-0.152 0.14-0.344 0.21-0.578 0.21h-7.060v-1.401h7.007l-0.718 0.491c-0.012-0.584-0.129-1.104-0.35-1.559-0.222-0.467-0.537-0.835-0.946-1.104s-0.905-0.403-1.489-0.403c-0.666 0-1.238 0.146-1.717 0.438-0.467 0.292-0.823 0.695-1.069 1.209-0.245 0.502-0.368 1.074-0.368 1.717s0.146 1.215 0.438 1.717 0.695 0.899 1.209 1.191c0.514 0.292 1.104 0.438 1.769 0.438 0.362 0 0.73-0.064 1.104-0.193 0.385-0.14 0.695-0.298 0.928-0.473 0.175-0.128 0.362-0.193 0.561-0.193 0.21-0.012 0.391 0.047 0.543 0.175 0.199 0.175 0.304 0.368 0.315 0.578s-0.082 0.391-0.28 0.543c-0.397 0.315-0.893 0.572-1.489 0.771-0.584 0.199-1.145 0.298-1.682 0.298z"></path>
<path fill="#000" style="fill: var(--color10, #000)" d="M38.167 22.807c-0.327 0-0.578-0.14-0.753-0.421s-0.193-0.578-0.053-0.893l4.923-11.755c0.175-0.409 0.461-0.613 0.858-0.613 0.42 0 0.706 0.204 0.858 0.613l4.94 11.79c0.129 0.327 0.111 0.625-0.053 0.893-0.152 0.257-0.397 0.386-0.736 0.386-0.175 0-0.345-0.047-0.508-0.14-0.152-0.105-0.263-0.245-0.333-0.42l-4.38-10.791h0.561l-4.485 10.791c-0.082 0.187-0.204 0.327-0.368 0.42-0.152 0.093-0.309 0.14-0.473 0.14z"></path>
</symbol>
<symbol id="icon-Google" viewBox="0 0 32 32">
<path d="M28 15.72c0 5.533-2.947 12.28-11.827 12.28-6.674 0.044-12.122-5.326-12.173-12 0.051-6.674 5.499-12.044 12.173-12 2.761 0.010 5.438 0.95 7.6 2.667 0.149 0.122 0.241 0.301 0.253 0.493 0.001 0.195-0.076 0.382-0.213 0.52-0.868 0.794-1.696 1.63-2.48 2.507-0.228 0.251-0.61 0.286-0.88 0.080-1.232-0.912-2.735-1.381-4.267-1.333-3.94 0-7.133 3.194-7.133 7.133s3.194 7.133 7.133 7.133c4 0 5.693-1.707 6.573-4.733h-6.093c-0.368 0-0.667-0.299-0.667-0.667v-3.533c0-0.368 0.299-0.667 0.667-0.667h10.667c0.307-0.002 0.566 0.228 0.6 0.533 0.049 0.527 0.072 1.057 0.067 1.587z"></path>
</symbol>
<symbol id="icon-keyboard_arrow_down" viewBox="0 0 32 32">
<path stroke-linejoin="miter" stroke-linecap="butt" stroke-miterlimit="4" stroke-width="1.3333" d="M9.451 12.031c0.134 0 0.237 0.041 0.341 0.145l6.208 6.244 6.243-6.244c0.104-0.103 0.192-0.133 0.299-0.129 0.126 0.005 0.234 0.048 0.349 0.163 0.104 0.104 0.145 0.207 0.145 0.341s-0.041 0.236-0.145 0.34l-6.559 6.559c-0.072 0.072-0.129 0.107-0.167 0.122-0.047 0.020-0.101 0.031-0.165 0.031-0.033 0-0.062-0.004-0.090-0.009l-0.077-0.022-0.070-0.040c-0.028-0.019-0.059-0.046-0.095-0.082l-6.593-6.591c-0.098-0.098-0.133-0.191-0.129-0.318 0.005-0.143 0.053-0.255 0.163-0.365 0.104-0.104 0.206-0.144 0.34-0.145z"></path>
</symbol>
<symbol id="icon-keyboard_arrow_up" viewBox="0 0 32 32">
<path stroke-linejoin="miter" stroke-linecap="butt" stroke-miterlimit="4" stroke-width="1.3333" d="M15.999 11.605c0.125 0 0.227 0.038 0.333 0.145l6.591 6.592c0.109 0.109 0.145 0.208 0.145 0.324s-0.035 0.215-0.145 0.324c-0.104 0.104-0.207 0.145-0.341 0.145s-0.236-0.041-0.34-0.145l-0.001-0.001-6.244-6.207-6.241 6.241c-0.104 0.104-0.192 0.133-0.299 0.129-0.126-0.005-0.234-0.047-0.349-0.161-0.104-0.104-0.145-0.207-0.145-0.341s0.040-0.237 0.145-0.341l6.559-6.559c0.107-0.107 0.207-0.144 0.332-0.145z"></path>
</symbol>
<symbol id="icon-logout" viewBox="0 0 32 32">
<path d="M6.070 28.2c-0.613 0-1.145-0.225-1.595-0.676s-0.676-0.982-0.676-1.595v-19.857c0-0.616 0.225-1.149 0.676-1.601s0.982-0.678 1.595-0.678h8.807c0.32 0 0.59 0.111 0.808 0.334s0.327 0.495 0.327 0.816c0 0.322-0.109 0.59-0.327 0.806s-0.488 0.323-0.808 0.323h-8.807v19.857h8.807c0.32 0 0.59 0.11 0.808 0.329s0.327 0.49 0.327 0.812c0 0.322-0.109 0.591-0.327 0.806s-0.488 0.323-0.808 0.323h-8.807zM23.855 17.136h-10.768c-0.32 0-0.59-0.11-0.808-0.329s-0.327-0.49-0.327-0.812c0-0.322 0.109-0.591 0.327-0.806s0.488-0.323 0.808-0.323h10.701l-2.564-2.564c-0.227-0.228-0.334-0.495-0.323-0.8s0.13-0.571 0.357-0.795c0.226-0.229 0.496-0.342 0.81-0.34s0.585 0.117 0.815 0.344l4.529 4.529c0.221 0.228 0.332 0.494 0.332 0.797s-0.111 0.568-0.332 0.794l-4.496 4.496c-0.222 0.227-0.486 0.335-0.792 0.327s-0.577-0.126-0.812-0.352c-0.218-0.227-0.329-0.497-0.331-0.811s0.112-0.585 0.344-0.813l2.531-2.539z"></path>
</symbol>
<symbol id="icon-today" viewBox="0 0 32 32">
<path d="M11.807 21.715c-0.907 0-1.672-0.313-2.294-0.939s-0.933-1.393-0.933-2.3c0-0.907 0.313-1.672 0.94-2.294s1.393-0.933 2.3-0.933c0.907 0 1.671 0.313 2.294 0.94s0.933 1.393 0.933 2.3c0 0.907-0.313 1.671-0.939 2.294s-1.393 0.933-2.3 0.933zM6.070 29.533c-0.613 0-1.145-0.225-1.595-0.676s-0.676-0.982-0.676-1.595v-20.523c0-0.616 0.225-1.149 0.676-1.601s0.982-0.678 1.595-0.678h2.095v-0.862c0-0.319 0.111-0.588 0.332-0.808s0.491-0.33 0.808-0.33c0.326 0 0.602 0.11 0.826 0.33s0.336 0.489 0.336 0.808v0.862h11.062v-0.862c0-0.319 0.111-0.588 0.332-0.808s0.491-0.33 0.808-0.33c0.327 0 0.602 0.11 0.826 0.33s0.336 0.489 0.336 0.808v0.862h2.095c0.615 0 1.149 0.226 1.601 0.678s0.678 0.985 0.678 1.601v20.523c0 0.613-0.226 1.145-0.678 1.595s-0.985 0.676-1.601 0.676h-19.857zM6.070 27.262h19.857v-14.262h-19.857v14.262zM6.070 11h19.857v-4.262h-19.857v4.262z"></path>
</symbol>
<symbol id="icon-conversion_path" viewBox="0 0 32 32">
<path d="M25.534 28.183c-0.97 0-1.807-0.288-2.511-0.864s-1.148-1.267-1.331-2.071h-6.925c-1.484 0-2.713-0.487-3.687-1.462s-1.461-2.205-1.461-3.69c0-1.48 0.487-2.707 1.461-3.682s2.203-1.462 3.687-1.462h2.567c0.893 0 1.626-0.286 2.196-0.857s0.856-1.303 0.856-2.197-0.285-1.626-0.856-2.196c-0.571-0.57-1.303-0.855-2.196-0.855h-7.017c-0.211 0.804-0.663 1.495-1.356 2.071s-1.525 0.864-2.494 0.864c-1.114 0-2.056-0.385-2.827-1.156s-1.156-1.713-1.156-2.827c0-1.114 0.385-2.057 1.156-2.827s1.713-1.156 2.827-1.156c0.97 0 1.801 0.288 2.494 0.864s1.145 1.267 1.356 2.071h7.017c1.483 0 2.711 0.487 3.686 1.462s1.462 2.203 1.462 3.686-0.487 2.711-1.462 3.686c-0.975 0.974-2.203 1.462-3.686 1.462h-2.567c-0.895 0-1.628 0.285-2.197 0.855s-0.855 1.301-0.855 2.193c0 0.898 0.285 1.632 0.855 2.201s1.302 0.855 2.197 0.855h6.925c0.205-0.805 0.655-1.495 1.348-2.071s1.525-0.864 2.494-0.864c1.114 0 2.056 0.385 2.827 1.156s1.156 1.713 1.156 2.827c0 1.114-0.385 2.057-1.156 2.827s-1.713 1.156-2.827 1.156zM6.468 9.6c0.511 0 0.939-0.172 1.283-0.517s0.517-0.772 0.517-1.283c0-0.511-0.172-0.939-0.517-1.283s-0.772-0.517-1.283-0.517c-0.511 0-0.939 0.172-1.283 0.517s-0.517 0.772-0.517 1.283c0 0.511 0.172 0.939 0.517 1.283s0.772 0.517 1.283 0.517z"></path>
</symbol>
<symbol id="icon-book_2" viewBox="0 0 32 32">
<path d="M7.348 21.27c0.316-0.202 0.659-0.356 1.030-0.461s0.768-0.158 1.192-0.158h1.112v-15.976h-1.112c-0.624 0-1.151 0.216-1.579 0.647s-0.643 0.959-0.643 1.583v14.365zM12.896 20.651h11.761v-15.976h-11.761v15.976zM9.57 29.533c-1.228 0-2.275-0.432-3.14-1.297s-1.297-1.911-1.297-3.14v-18.191c0-1.23 0.432-2.279 1.297-3.145s1.911-1.3 3.14-1.3h15.024c0.632 0 1.17 0.222 1.614 0.665s0.665 0.981 0.665 1.614v17.246c0 0.217-0.056 0.414-0.167 0.591s-0.253 0.301-0.427 0.373c-0.406 0.168-0.725 0.442-0.956 0.822s-0.347 0.818-0.347 1.315 0.115 0.934 0.345 1.311c0.23 0.377 0.548 0.648 0.954 0.812 0.192 0.084 0.34 0.229 0.443 0.437s0.155 0.46 0.155 0.756v0.037c0 0.303-0.107 0.56-0.322 0.774s-0.478 0.32-0.789 0.32h-16.191zM9.554 27.318h13.8c-0.188-0.316-0.333-0.665-0.437-1.047s-0.156-0.773-0.156-1.174c0-0.424 0.053-0.821 0.158-1.192s0.262-0.717 0.469-1.039h-13.831c-0.61 0-1.131 0.216-1.562 0.647s-0.647 0.959-0.647 1.583c0 0.619 0.216 1.144 0.647 1.575s0.951 0.647 1.56 0.647z"></path>
</symbol>
<symbol id="icon-account_circle" viewBox="0 0 32 32">
<path d="M7.431 23.413c1.395-0.967 2.778-1.709 4.151-2.226s2.846-0.775 4.421-0.775c1.575 0 3.055 0.26 4.442 0.781s2.771 1.261 4.156 2.22c0.967-1.205 1.653-2.407 2.056-3.605s0.605-2.467 0.605-3.807c0-3.197-1.078-5.873-3.233-8.029s-4.831-3.233-8.028-3.233c-3.196 0-5.873 1.078-8.029 3.233s-3.234 4.832-3.234 8.029c0 1.34 0.206 2.608 0.618 3.805s1.104 2.399 2.076 3.608zM15.993 17.056c-1.302 0-2.395-0.445-3.28-1.335s-1.328-1.984-1.328-3.282 0.445-2.391 1.334-3.28c0.89-0.888 1.985-1.333 3.287-1.333s2.395 0.446 3.28 1.339c0.885 0.892 1.328 1.988 1.328 3.286s-0.445 2.39-1.334 3.276c-0.89 0.886-1.985 1.328-3.287 1.328zM16.010 29.533c-1.856 0-3.607-0.355-5.252-1.064s-3.084-1.68-4.315-2.911c-1.232-1.231-2.202-2.667-2.912-4.308s-1.064-3.393-1.064-5.259c0-1.859 0.355-3.608 1.066-5.245s1.681-3.071 2.911-4.301c1.23-1.23 2.665-2.201 4.306-2.915s3.394-1.070 5.26-1.070c1.859 0 3.608 0.357 5.245 1.070s3.071 1.685 4.301 2.915c1.23 1.23 2.201 2.664 2.915 4.303s1.070 3.386 1.070 5.242c0 1.856-0.357 3.607-1.070 5.253s-1.685 3.084-2.915 4.314c-1.23 1.23-2.664 2.2-4.303 2.911s-3.386 1.066-5.242 1.066zM15.999 27.262c1.206 0 2.379-0.173 3.52-0.517s2.277-0.954 3.41-1.827c-1.139-0.795-2.281-1.396-3.427-1.805s-2.314-0.613-3.503-0.613-2.356 0.205-3.499 0.613c-1.143 0.409-2.284 1.011-3.423 1.805 1.133 0.873 2.269 1.482 3.406 1.827s2.309 0.517 3.516 0.517zM15.999 14.96c0.739 0 1.343-0.233 1.814-0.701s0.705-1.072 0.705-1.814-0.235-1.348-0.705-1.818c-0.47-0.47-1.075-0.705-1.814-0.705s-1.343 0.235-1.814 0.705c-0.47 0.47-0.705 1.076-0.705 1.818s0.235 1.347 0.705 1.814c0.47 0.467 1.075 0.701 1.814 0.701z"></path>
</symbol>
<symbol id="icon-close" viewBox="0 0 32 32">
<path stroke-linejoin="miter" stroke-linecap="butt" stroke-miterlimit="4" stroke-width="1.3333" d="M23.467 7.9c0.219 0 0.355 0.065 0.462 0.172s0.172 0.242 0.172 0.461c0 0.219-0.065 0.355-0.172 0.462l-7.005 7.005 7.005 7.004c0.107 0.107 0.172 0.243 0.172 0.462s-0.065 0.355-0.172 0.462-0.243 0.172-0.462 0.172c-0.219 0-0.355-0.065-0.462-0.172l-7.004-7.005-7.005 7.005c-0.107 0.107-0.243 0.172-0.462 0.172s-0.354-0.065-0.461-0.172c-0.107-0.107-0.172-0.243-0.172-0.462s0.065-0.355 0.172-0.462l7.004-7.004-7.004-7.005c-0.107-0.107-0.172-0.243-0.172-0.462s0.065-0.354 0.172-0.461 0.242-0.172 0.461-0.172c0.219 0 0.355 0.065 0.462 0.172l7.005 7.004 7.004-7.004c0.107-0.107 0.243-0.172 0.462-0.172z"></path>
</symbol>
<symbol id="icon-fork_spoon" viewBox="0 0 32 32">
<path d="M8.976 29.533c-0.322 0-0.591-0.109-0.807-0.327s-0.323-0.488-0.323-0.808v-11.369c-1.33-0.333-2.377-0.965-3.14-1.893s-1.144-2.015-1.144-3.259v-8.305c0-0.312 0.107-0.575 0.322-0.789s0.477-0.322 0.788-0.322 0.573 0.107 0.786 0.322c0.213 0.215 0.319 0.478 0.319 0.789v7.17h2.1v-7.17c0-0.312 0.107-0.575 0.322-0.789s0.477-0.322 0.788-0.322 0.573 0.107 0.786 0.322c0.213 0.215 0.319 0.478 0.319 0.789v7.17h2.133v-7.17c0-0.312 0.107-0.575 0.322-0.789s0.478-0.322 0.789-0.322c0.311 0 0.573 0.107 0.786 0.322s0.319 0.478 0.319 0.789v8.289c0 1.249-0.384 2.334-1.152 3.254s-1.825 1.555-3.173 1.904v11.378c0 0.321-0.11 0.59-0.329 0.808s-0.49 0.327-0.812 0.327zM23.116 29.533c-0.322 0-0.59-0.109-0.806-0.327s-0.323-0.488-0.323-0.808v-11.944c-1.272-0.453-2.288-1.294-3.049-2.525s-1.141-2.686-1.141-4.368c0-1.974 0.52-3.651 1.56-5.031s2.295-2.070 3.765-2.070c1.47 0 2.725 0.692 3.765 2.077s1.56 3.059 1.56 5.024c0 1.679-0.38 3.135-1.141 4.369s-1.774 2.087-3.040 2.558v11.909c0 0.321-0.111 0.59-0.334 0.808s-0.495 0.327-0.816 0.327z"></path>
</symbol>
<symbol id="icon-fitness_center" viewBox="0 0 32 32">
<path d="M8.973 10.556l-3.97 3.969c-0.221 0.221-0.477 0.331-0.768 0.328s-0.547-0.115-0.768-0.336c-0.199-0.199-0.303-0.449-0.311-0.751s0.087-0.563 0.286-0.784l1.12-1.146-1.063-1.071c-0.227-0.227-0.34-0.493-0.34-0.8s0.113-0.573 0.34-0.8l2.046-2.046-0.596-0.588c-0.232-0.227-0.348-0.493-0.348-0.8s0.113-0.57 0.34-0.792c0.204-0.21 0.464-0.319 0.779-0.327s0.586 0.090 0.812 0.294l0.622 0.604 2.012-2.012c0.227-0.227 0.493-0.34 0.8-0.34s0.576 0.113 0.808 0.34l1.063 1.063 1.154-1.128c0.221-0.199 0.478-0.298 0.772-0.298s0.548 0.108 0.764 0.324c0.221 0.227 0.332 0.485 0.332 0.776s-0.111 0.546-0.332 0.768l-3.962 3.962 12.47 12.47 3.962-3.962c0.221-0.221 0.479-0.332 0.772-0.332s0.551 0.111 0.772 0.332c0.199 0.199 0.303 0.451 0.311 0.755s-0.087 0.565-0.286 0.78l-1.128 1.154 1.063 1.063c0.227 0.232 0.34 0.501 0.34 0.808s-0.113 0.573-0.34 0.8l-2.079 2.079 0.604 0.588c0.227 0.227 0.34 0.493 0.34 0.8s-0.113 0.57-0.34 0.792c-0.226 0.227-0.492 0.34-0.796 0.34s-0.569-0.116-0.796-0.348l-0.588-0.596-2.012 2.012c-0.227 0.227-0.493 0.34-0.8 0.34s-0.573-0.113-0.8-0.34l-1.071-1.063-1.154 1.128c-0.221 0.199-0.477 0.297-0.768 0.294s-0.544-0.112-0.76-0.328c-0.227-0.221-0.34-0.477-0.34-0.768s0.113-0.549 0.34-0.776l3.961-3.962-12.47-12.47z"></path>
</symbol>
<symbol id="icon-menu-1" viewBox="0 0 32 32">
<path d="M5.333 8h21.333v2.667h-21.333v-2.667zM5.333 14.667h21.333v2.667h-21.333v-2.667zM5.333 21.333h21.333v2.667h-21.333v-2.667z"></path>
</symbol>
<symbol id="icon-chair" viewBox="0 0 32 32">
<path d="M6.751 28.598c-0.303 0-0.568-0.115-0.795-0.346s-0.34-0.498-0.34-0.802v-1.484h-0.433c-1.070 0-1.979-0.374-2.727-1.123s-1.123-1.657-1.123-2.727v-8.133c0-1.146 0.343-2.027 1.029-2.644s1.499-0.945 2.437-0.982v-2.707c0-1.073 0.34-1.95 1.020-2.63s1.557-1.020 2.63-1.020h15.5c1.073 0 1.944 0.34 2.613 1.020s1.003 1.557 1.003 2.63v2.707c0.939 0.037 1.751 0.364 2.437 0.982s1.029 1.499 1.029 2.644v8.133c0 1.070-0.374 1.979-1.123 2.727s-1.657 1.123-2.727 1.123h-0.433v1.484c0 0.304-0.113 0.572-0.34 0.802s-0.492 0.346-0.796 0.346-0.569-0.115-0.795-0.346c-0.227-0.23-0.34-0.498-0.34-0.802v-1.484h-16.583v1.486c0 0.305-0.115 0.572-0.345 0.801s-0.496 0.344-0.8 0.344zM5.183 23.696h22c0.42 0 0.788-0.159 1.104-0.477s0.475-0.685 0.475-1.102v-8.133c0-0.416-0.126-0.75-0.377-1.001s-0.585-0.378-1.003-0.378c-0.418 0-0.752 0.126-1.002 0.378s-0.376 0.586-0.376 1.001v5.954h-19.642v-5.954c0-0.416-0.126-0.75-0.377-1.001s-0.585-0.378-1.003-0.378c-0.418 0-0.752 0.126-1.002 0.378s-0.376 0.586-0.376 1.001v8.133c0 0.416 0.159 0.783 0.477 1.102s0.685 0.477 1.102 0.477zM8.633 17.667h15.1v-3.683c0-0.709 0.162-1.308 0.486-1.797s0.683-0.879 1.077-1.17v-3.366c0-0.42-0.125-0.754-0.375-1.004s-0.582-0.375-0.996-0.375h-15.484c-0.41 0-0.741 0.125-0.993 0.375s-0.377 0.585-0.377 1.004v3.366c0.394 0.291 0.753 0.681 1.077 1.17s0.486 1.088 0.486 1.797v3.683z"></path>
</symbol>
<symbol id="icon-delete_forever" viewBox="0 0 32 32">
<path d="M8.636 28.199c-0.632 0-1.17-0.221-1.614-0.663s-0.665-0.978-0.665-1.608v-18.865h-0.367c-0.321 0-0.59-0.11-0.808-0.329s-0.327-0.49-0.327-0.812c0-0.322 0.109-0.591 0.327-0.806s0.488-0.323 0.808-0.323h5.474c0-0.326 0.109-0.598 0.328-0.816s0.488-0.327 0.808-0.327h6.792c0.32 0 0.59 0.111 0.808 0.332s0.327 0.492 0.327 0.812h5.482c0.321 0 0.59 0.11 0.808 0.329s0.327 0.49 0.327 0.812-0.109 0.591-0.327 0.807c-0.218 0.215-0.488 0.323-0.808 0.323h-0.367v18.865c0 0.63-0.222 1.166-0.665 1.608s-0.981 0.663-1.614 0.663h-14.727zM23.363 7.063h-14.727v18.865h14.727v-18.865zM15.999 18.103l3.136 3.162c0.233 0.238 0.515 0.361 0.848 0.37s0.618-0.109 0.856-0.353c0.233-0.251 0.349-0.535 0.349-0.853s-0.116-0.596-0.349-0.834l-3.136-3.195 3.136-3.203c0.233-0.233 0.349-0.51 0.349-0.831s-0.116-0.601-0.349-0.839c-0.238-0.233-0.524-0.349-0.856-0.349s-0.615 0.116-0.848 0.349l-3.136 3.17-3.103-3.17c-0.233-0.233-0.514-0.349-0.844-0.349s-0.614 0.116-0.852 0.349c-0.233 0.238-0.349 0.524-0.349 0.856s0.116 0.615 0.349 0.848l3.128 3.17-3.128 3.17c-0.238 0.233-0.356 0.514-0.353 0.844s0.12 0.614 0.353 0.852c0.24 0.233 0.524 0.349 0.853 0.349s0.612-0.116 0.851-0.349l3.095-3.162z"></path>
</symbol>
<symbol id="icon-edit_square" viewBox="0 0 32 32">
<path d="M6.070 28.199c-0.613 0-1.145-0.225-1.595-0.676s-0.676-0.982-0.676-1.595v-19.857c0-0.616 0.225-1.149 0.676-1.601s0.982-0.678 1.595-0.678h10.757c0.381 0 0.667 0.118 0.858 0.354s0.286 0.496 0.286 0.779c0 0.283-0.096 0.545-0.288 0.786s-0.475 0.36-0.847 0.36h-10.765v19.857h19.857v-10.857c0-0.373 0.118-0.656 0.354-0.848s0.496-0.288 0.779-0.288 0.545 0.096 0.785 0.288c0.24 0.192 0.361 0.475 0.361 0.848v10.857c0 0.613-0.226 1.145-0.678 1.595s-0.985 0.676-1.601 0.676h-19.857zM11.903 18.96v-3.722c0-0.312 0.062-0.61 0.187-0.893s0.291-0.53 0.501-0.739l11.958-11.95c0.227-0.226 0.478-0.391 0.755-0.493s0.556-0.153 0.837-0.153c0.276 0 0.557 0.057 0.843 0.17s0.546 0.283 0.781 0.51l2.512 2.537c0.223 0.231 0.393 0.484 0.511 0.757s0.177 0.553 0.177 0.836c0 0.285-0.058 0.574-0.173 0.866s-0.287 0.552-0.515 0.78l-11.883 11.95c-0.21 0.21-0.456 0.375-0.739 0.497s-0.581 0.183-0.893 0.183h-3.722c-0.321 0-0.59-0.109-0.808-0.327s-0.327-0.488-0.327-0.808zM14.063 17.936h2.746l8.378-8.378-1.383-1.36-1.388-1.352-8.352 8.311v2.779z"></path>
</symbol>
</defs>
</svg>
